<svg width="73" height="88" viewBox="0 0 73 88" fill="none" xmlns="http://www.w3.org/2000/svg"><script xmlns="" id="argent-x-extension" data-extension-id="{51e0c76c-7dbc-41ba-a45d-c579be84301b}"/>
<path d="M59.8564 30.9017L59.792 30.9694C59.7619 31.0005 59.7314 31.0314 59.7006 31.0621L42.0382 48.6961C38.9614 51.768 33.9729 51.768 30.8961 48.6961L26.0186 43.8267C25.6728 43.4828 25.6721 42.9236 26.0163 42.5782C26.1176 42.4766 26.2421 42.4012 26.379 42.3584C31.6069 40.7446 35.8548 38.8817 39.1225 36.7699C46.9047 31.7403 53.816 29.7843 59.8564 30.9017ZM56.1535 16.3958C62.6746 18.4507 61.9135 23.2479 62 25.1391C54.8584 21.3943 46.2669 22.7669 36.2254 29.2566C28.741 34.0937 22.4716 36.088 17.4173 35.2395C12.363 34.391 11.226 28.2183 11 26.578C16.5538 29.3861 23.9966 27.7744 33.3283 21.7434C42.024 16.1235 49.6324 14.3409 56.1535 16.3958ZM42.0382 2.30389L46.6212 6.87887C46.9664 7.2233 46.9669 7.78255 46.6225 8.12778C46.4996 8.25096 46.3431 8.33506 46.1726 8.36942C39.538 9.706 34.232 11.6596 30.2546 14.2302C23.4389 18.6351 17.6308 20.6825 12.8303 20.3724L12.8308 20.3711L30.8961 2.30389C33.9729 -0.767963 38.9614 -0.767963 42.0382 2.30389Z" fill="url(#paint0_linear_342_6190)"/>
<path d="M12.7905 70.556C12.6997 69.7065 12.3171 69.0451 11.6427 68.5718C10.9749 68.0984 10.1059 67.8617 9.03601 67.8617C8.28382 67.8617 7.63863 67.9752 7.10042 68.2022C6.56222 68.4291 6.15046 68.7371 5.86514 69.1262C5.57983 69.5152 5.43393 69.9594 5.42744 70.4587C5.42744 70.8737 5.52147 71.2336 5.70952 71.5384C5.90405 71.8431 6.16667 72.1025 6.49737 72.3165C6.82808 72.524 7.19444 72.6991 7.59648 72.8417C7.99851 72.9844 8.40379 73.1044 8.8123 73.2016L10.6798 73.6685C11.432 73.8436 12.155 74.0803 12.8488 74.3785C13.5492 74.6768 14.1749 75.0529 14.7261 75.5068C15.2837 75.9607 15.7247 76.5087 16.0489 77.1506C16.3731 77.7926 16.5352 78.5448 16.5352 79.4072C16.5352 80.5744 16.2369 81.6022 15.6404 82.4905C15.0438 83.3724 14.1814 84.063 13.0531 84.5623C11.9313 85.0551 10.5728 85.3015 8.97766 85.3015C7.42788 85.3015 6.08237 85.0616 4.94111 84.5818C3.80634 84.1019 2.91798 83.4016 2.27603 82.4808C1.64055 81.56 1.29688 80.4382 1.24501 79.1154H4.79522C4.84709 79.8092 5.06108 80.3863 5.43717 80.8467C5.81327 81.3071 6.30284 81.6508 6.90589 81.8778C7.51542 82.1047 8.19628 82.2182 8.94848 82.2182C9.73309 82.2182 10.4204 82.1015 11.0105 81.868C11.6071 81.6281 12.074 81.2974 12.4111 80.8759C12.7483 80.4479 12.9202 79.9487 12.9267 79.378C12.9202 78.8593 12.7678 78.4313 12.4695 78.0941C12.1712 77.7504 11.753 77.4651 11.2148 77.2382C10.6831 77.0047 10.0605 76.7972 9.34727 76.6157L7.08097 76.0321C5.44041 75.6106 4.14353 74.9719 3.19033 74.1159C2.2436 73.2535 1.77024 72.109 1.77024 70.6824C1.77024 69.5088 2.08798 68.481 2.72345 67.5991C3.3654 66.7172 4.23756 66.0331 5.33991 65.5468C6.44225 65.054 7.6905 64.8076 9.08465 64.8076C10.4982 64.8076 11.7368 65.054 12.8002 65.5468C13.8701 66.0331 14.7099 66.7107 15.3194 67.5797C15.9289 68.4421 16.2434 69.4342 16.2629 70.556H12.7905ZM22.68 85L18.4587 70.0599H22.0478L24.674 80.5647H24.8101L27.4947 70.0599H31.0449L33.7294 80.5063H33.8753L36.4626 70.0599H40.0614L35.8304 85H32.1634L29.3622 74.9038H29.1579L26.3567 85H22.68ZM48.706 85.2918C47.2081 85.2918 45.9144 84.9805 44.8251 84.358C43.7422 83.7291 42.9089 82.8407 42.3253 81.693C41.7417 80.5387 41.4499 79.1802 41.4499 77.6175C41.4499 76.0807 41.7417 74.7319 42.3253 73.5712C42.9154 72.404 43.7389 71.4962 44.7959 70.8478C45.8528 70.1929 47.0946 69.8654 48.5212 69.8654C49.4419 69.8654 50.3109 70.0145 51.1279 70.3128C51.9514 70.6046 52.6777 71.0585 53.3066 71.6746C53.9421 72.2906 54.4414 73.0752 54.8045 74.0284C55.1677 74.9751 55.3492 76.1034 55.3492 77.4132V78.4929H43.1034V76.1196H51.9741C51.9676 75.4452 51.8217 74.8454 51.5364 74.3202C51.2511 73.7885 50.8523 73.3702 50.34 73.0655C49.8343 72.7607 49.2442 72.6083 48.5698 72.6083C47.85 72.6083 47.2178 72.7834 46.6731 73.1335C46.1284 73.4772 45.7037 73.9311 45.3989 74.4953C45.1006 75.0529 44.9483 75.6657 44.9418 76.3336V78.4054C44.9418 79.2743 45.1006 80.02 45.4184 80.6425C45.7361 81.2585 46.1803 81.7319 46.7509 82.0626C47.3215 82.3868 47.9894 82.5489 48.7546 82.5489C49.2669 82.5489 49.7305 82.4776 50.1455 82.3349C50.5605 82.1858 50.9204 81.9685 51.2252 81.6832C51.5299 81.3979 51.7601 81.0445 51.9157 80.623L55.2033 80.9926C54.9958 81.8615 54.6003 82.6202 54.0167 83.2687C53.4396 83.9106 52.7004 84.4099 51.799 84.7666C50.8977 85.1167 49.8667 85.2918 48.706 85.2918ZM61.849 65.0799V85H58.328V65.0799H61.849ZM68.9908 65.0799V85H65.4698V65.0799H68.9908Z" fill="white"/>
<defs>
<linearGradient id="paint0_linear_342_6190" x1="36.5" y1="-1.49012e-08" x2="36" y2="86" gradientUnits="userSpaceOnUse">
<stop stop-color="#3068EF"/>
<stop offset="1" stop-color="#1322AC"/>
</linearGradient>
</defs>
</svg>